USFL
nRows=149
nColumns=2
inDegrees=yes
endheader
time	med_gas_r	
2.75	 55.791121	
2.8125	 55.890780	
2.875	 55.792730	
2.9375	 55.774988	
3	 55.796369	
3.0625	 55.845000	
3.125	 55.894152	
3.1875	 55.764506	
3.25	 55.816804	
3.3125	 55.798731	
3.375	 55.783223	
3.4375	 55.668017	
3.5	 55.539846	
3.5625	 55.304468	
3.625	 55.298727	
3.6875	 55.408014	
3.75	 55.523892	
3.8125	 55.594660	
3.875	 55.545492	
3.9375	 55.602943	
4	 55.488863	
4.0625	 55.364833	
4.125	 55.230186	
4.1875	 55.213431	
4.25	 55.113825	
4.3125	 55.132340	
4.375	 55.094995	
4.4375	 55.002059	
4.5	 51.342880	
4.5625	 51.294551	
4.625	 47.963468	
4.6875	 47.927238	
4.75	 46.705895	
4.8125	 44.458157	
4.875	 44.495779	
4.9375	 42.644424	
5	 42.710256	
5.0625	 42.731309	
5.125	 39.239990	
5.1875	 39.219074	
5.25	 39.160046	
5.3125	 39.120451	
5.375	 39.020345	
5.4375	 38.912616	
5.5	 38.714654	
5.5625	 37.763474	
5.625	 37.587699	
5.6875	 37.446737	
5.75	 37.448528	
5.8125	 37.543195	
5.875	 37.417860	
5.9375	 38.983033	
6	 38.986767	
6.0625	 39.167829	
6.125	 40.156660	
6.1875	 40.112969	
6.25	 40.186870	
6.3125	 40.307965	
6.375	 40.380298	
6.4375	 40.269078	
6.5	 41.625756	
6.5625	 41.716118	
6.625	 41.728249	
6.6875	 41.779673	
6.75	 41.937566	
6.8125	 43.916000	
6.875	 44.874221	
6.9375	 45.052295	
7	 44.895962	
7.0625	 45.147350	
7.125	 45.171284	
7.1875	 45.133924	
7.25	 44.888302	
7.3125	 44.896566	
7.375	 44.780359	
7.4375	 44.894407	
7.5	 44.884259	
7.5625	 44.900164	
7.625	 45.027765	
7.6875	 45.032852	
7.75	 44.962919	
7.8125	 44.866385	
7.875	 44.952020	
7.9375	 44.819279	
8	 44.774205	
8.0625	 44.698849	
8.125	 44.767459	
8.1875	 44.750847	
8.25	 44.682463	
8.3125	 44.677900	
8.375	 44.673916	
8.4375	 44.692827	
8.5	 44.829712	
8.5625	 44.776139	
8.625	 44.741946	
8.6875	 44.701021	
8.75	 44.597126	
8.8125	 44.577260	
8.875	 44.688419	
8.9375	 44.570363	
9	 44.501016	
9.0625	 44.649666	
9.125	 44.638141	
9.1875	 44.714270	
9.25	 44.687519	
9.3125	 44.633430	
9.375	 44.581010	
9.4375	 44.558072	
9.5	 48.797556	
9.5625	 51.216423	
9.625	 50.080900	
9.6875	 50.089905	
9.75	 51.529861	
9.8125	 51.446231	
9.875	 59.220292	
9.9375	 59.265342	
10	 59.299351	
10.0625	 59.583886	
10.125	 59.536711	
10.1875	 59.618898	
10.25	 59.562450	
10.3125	 59.712870	
10.375	 59.699518	
10.4375	 59.643032	
10.5	 59.438921	
10.5625	 59.329734	
10.625	 59.188940	
10.6875	 59.071822	
10.75	 58.920365	
10.8125	 58.923732	
10.875	 58.800454	
10.9375	 58.931081	
11	 59.117123	
11.0625	 59.178563	
11.125	 58.996502	
11.1875	 58.886738	
11.25	 58.743942	
11.3125	 58.792630	
11.375	 58.761421	
11.4375	 58.583756	
11.5	 58.730717	
11.5625	 58.770518	
11.625	 58.698436	
11.6875	 58.449904	
11.75	 58.355910	
11.8125	 58.326525	
11.875	 58.432201	
11.9375	 58.459847	
12	 58.312910	
